<mxfile host="app.diagrams.net" agent="Mozilla/5.0 (Windows NT 10.0; Win64; x64) AppleWebKit/537.36 (KHTML, like Gecko) Chrome/128.0.0.0 Safari/537.36" version="24.7.12">
  <diagram name="Сторінка-1" id="6YnxKC6ErhoAbZkqU58l">
    <mxGraphModel dx="2345" dy="1027" grid="1" gridSize="10" guides="1" tooltips="1" connect="1" arrows="1" fold="1" page="1" pageScale="1" pageWidth="827" pageHeight="1169" math="0" shadow="0">
      <root>
        <mxCell id="0" />
        <mxCell id="1" parent="0" />
        <mxCell id="1ZrglhPDPXJqf7Ey3ZCS-25" value="bonus" style="ellipse;whiteSpace=wrap;html=1;align=center;dashed=1;" vertex="1" parent="1">
          <mxGeometry x="420" y="460" width="100" height="40" as="geometry" />
        </mxCell>
        <mxCell id="1ZrglhPDPXJqf7Ey3ZCS-26" value="manager_id" style="ellipse;whiteSpace=wrap;html=1;align=center;dashed=1;" vertex="1" parent="1">
          <mxGeometry x="230" y="500" width="100" height="40" as="geometry" />
        </mxCell>
        <mxCell id="1ZrglhPDPXJqf7Ey3ZCS-27" value="department_id" style="ellipse;whiteSpace=wrap;html=1;align=center;dashed=1;" vertex="1" parent="1">
          <mxGeometry x="160" y="460" width="100" height="40" as="geometry" />
        </mxCell>
        <mxCell id="1ZrglhPDPXJqf7Ey3ZCS-28" value="rate" style="ellipse;whiteSpace=wrap;html=1;align=center;" vertex="1" parent="1">
          <mxGeometry x="330" y="490" width="100" height="40" as="geometry" />
        </mxCell>
        <mxCell id="1ZrglhPDPXJqf7Ey3ZCS-29" value="employment_date" style="ellipse;whiteSpace=wrap;html=1;align=center;" vertex="1" parent="1">
          <mxGeometry x="160" y="210" width="100" height="40" as="geometry" />
        </mxCell>
        <mxCell id="1ZrglhPDPXJqf7Ey3ZCS-30" value="position" style="ellipse;whiteSpace=wrap;html=1;align=center;" vertex="1" parent="1">
          <mxGeometry x="120" y="410" width="100" height="40" as="geometry" />
        </mxCell>
        <mxCell id="1ZrglhPDPXJqf7Ey3ZCS-31" value="last_name" style="ellipse;whiteSpace=wrap;html=1;align=center;" vertex="1" parent="1">
          <mxGeometry x="90" y="360" width="100" height="40" as="geometry" />
        </mxCell>
        <mxCell id="1ZrglhPDPXJqf7Ey3ZCS-32" value="first_name" style="ellipse;whiteSpace=wrap;html=1;align=center;" vertex="1" parent="1">
          <mxGeometry x="80" y="310" width="100" height="40" as="geometry" />
        </mxCell>
        <mxCell id="1ZrglhPDPXJqf7Ey3ZCS-33" value="user_name" style="ellipse;whiteSpace=wrap;html=1;align=center;" vertex="1" parent="1">
          <mxGeometry x="100" y="260" width="100" height="40" as="geometry" />
        </mxCell>
        <mxCell id="1ZrglhPDPXJqf7Ey3ZCS-34" value="employee_id" style="ellipse;whiteSpace=wrap;html=1;align=center;" vertex="1" parent="1">
          <mxGeometry x="240" y="180" width="100" height="40" as="geometry" />
        </mxCell>
        <mxCell id="1ZrglhPDPXJqf7Ey3ZCS-35" value="manages" style="shape=rhombus;perimeter=rhombusPerimeter;whiteSpace=wrap;html=1;align=center;strokeColor=#3399FF;" vertex="1" parent="1">
          <mxGeometry x="460" y="170" width="120" height="60" as="geometry" />
        </mxCell>
        <mxCell id="1ZrglhPDPXJqf7Ey3ZCS-38" value="employee" style="whiteSpace=wrap;html=1;align=center;strokeColor=#FF0000;" vertex="1" parent="1">
          <mxGeometry x="470" y="270" width="100" height="40" as="geometry" />
        </mxCell>
        <mxCell id="1ZrglhPDPXJqf7Ey3ZCS-48" value="" style="endArrow=none;html=1;rounded=0;" edge="1" parent="1" source="1ZrglhPDPXJqf7Ey3ZCS-34" target="1ZrglhPDPXJqf7Ey3ZCS-38">
          <mxGeometry relative="1" as="geometry">
            <mxPoint x="420" y="330" as="sourcePoint" />
            <mxPoint x="580" y="330" as="targetPoint" />
          </mxGeometry>
        </mxCell>
        <mxCell id="1ZrglhPDPXJqf7Ey3ZCS-49" value="" style="endArrow=none;html=1;rounded=0;" edge="1" parent="1" source="1ZrglhPDPXJqf7Ey3ZCS-26" target="1ZrglhPDPXJqf7Ey3ZCS-38">
          <mxGeometry relative="1" as="geometry">
            <mxPoint x="430" y="418.95" as="sourcePoint" />
            <mxPoint x="590" y="418.95" as="targetPoint" />
          </mxGeometry>
        </mxCell>
        <mxCell id="1ZrglhPDPXJqf7Ey3ZCS-50" value="" style="endArrow=none;html=1;rounded=0;" edge="1" parent="1" source="1ZrglhPDPXJqf7Ey3ZCS-27" target="1ZrglhPDPXJqf7Ey3ZCS-38">
          <mxGeometry relative="1" as="geometry">
            <mxPoint x="420" y="420" as="sourcePoint" />
            <mxPoint x="580" y="420" as="targetPoint" />
          </mxGeometry>
        </mxCell>
        <mxCell id="1ZrglhPDPXJqf7Ey3ZCS-51" value="" style="endArrow=none;html=1;rounded=0;" edge="1" parent="1" source="1ZrglhPDPXJqf7Ey3ZCS-30" target="1ZrglhPDPXJqf7Ey3ZCS-38">
          <mxGeometry relative="1" as="geometry">
            <mxPoint x="420" y="330" as="sourcePoint" />
            <mxPoint x="580" y="330" as="targetPoint" />
          </mxGeometry>
        </mxCell>
        <mxCell id="1ZrglhPDPXJqf7Ey3ZCS-52" value="" style="endArrow=none;html=1;rounded=0;" edge="1" parent="1" source="1ZrglhPDPXJqf7Ey3ZCS-31" target="1ZrglhPDPXJqf7Ey3ZCS-38">
          <mxGeometry relative="1" as="geometry">
            <mxPoint x="420" y="330" as="sourcePoint" />
            <mxPoint x="580" y="330" as="targetPoint" />
          </mxGeometry>
        </mxCell>
        <mxCell id="1ZrglhPDPXJqf7Ey3ZCS-53" value="" style="endArrow=none;html=1;rounded=0;" edge="1" parent="1" source="1ZrglhPDPXJqf7Ey3ZCS-32" target="1ZrglhPDPXJqf7Ey3ZCS-38">
          <mxGeometry relative="1" as="geometry">
            <mxPoint x="420" y="330" as="sourcePoint" />
            <mxPoint x="580" y="330" as="targetPoint" />
          </mxGeometry>
        </mxCell>
        <mxCell id="1ZrglhPDPXJqf7Ey3ZCS-54" value="" style="endArrow=none;html=1;rounded=0;" edge="1" parent="1" source="1ZrglhPDPXJqf7Ey3ZCS-33" target="1ZrglhPDPXJqf7Ey3ZCS-38">
          <mxGeometry relative="1" as="geometry">
            <mxPoint x="420" y="330" as="sourcePoint" />
            <mxPoint x="580" y="330" as="targetPoint" />
          </mxGeometry>
        </mxCell>
        <mxCell id="1ZrglhPDPXJqf7Ey3ZCS-55" value="" style="endArrow=none;html=1;rounded=0;" edge="1" parent="1" source="1ZrglhPDPXJqf7Ey3ZCS-29" target="1ZrglhPDPXJqf7Ey3ZCS-38">
          <mxGeometry relative="1" as="geometry">
            <mxPoint x="420" y="330" as="sourcePoint" />
            <mxPoint x="580" y="330" as="targetPoint" />
          </mxGeometry>
        </mxCell>
        <mxCell id="1ZrglhPDPXJqf7Ey3ZCS-56" value="" style="endArrow=none;html=1;rounded=0;" edge="1" parent="1" source="1ZrglhPDPXJqf7Ey3ZCS-25" target="1ZrglhPDPXJqf7Ey3ZCS-38">
          <mxGeometry relative="1" as="geometry">
            <mxPoint x="330" y="330" as="sourcePoint" />
            <mxPoint x="490" y="330" as="targetPoint" />
          </mxGeometry>
        </mxCell>
        <mxCell id="1ZrglhPDPXJqf7Ey3ZCS-57" value="" style="endArrow=none;html=1;rounded=0;" edge="1" parent="1" source="1ZrglhPDPXJqf7Ey3ZCS-28" target="1ZrglhPDPXJqf7Ey3ZCS-38">
          <mxGeometry relative="1" as="geometry">
            <mxPoint x="330" y="330" as="sourcePoint" />
            <mxPoint x="490" y="330" as="targetPoint" />
          </mxGeometry>
        </mxCell>
        <mxCell id="1ZrglhPDPXJqf7Ey3ZCS-58" value="works_for" style="shape=rhombus;perimeter=rhombusPerimeter;whiteSpace=wrap;html=1;align=center;strokeColor=#3399FF;" vertex="1" parent="1">
          <mxGeometry x="730" y="260" width="120" height="60" as="geometry" />
        </mxCell>
        <mxCell id="1ZrglhPDPXJqf7Ey3ZCS-59" value="departament" style="whiteSpace=wrap;html=1;align=center;strokeColor=#FF0000;" vertex="1" parent="1">
          <mxGeometry x="1010" y="270" width="100" height="40" as="geometry" />
        </mxCell>
        <mxCell id="1ZrglhPDPXJqf7Ey3ZCS-60" value="street" style="ellipse;whiteSpace=wrap;html=1;align=center;" vertex="1" parent="1">
          <mxGeometry x="1170" y="230" width="100" height="40" as="geometry" />
        </mxCell>
        <mxCell id="1ZrglhPDPXJqf7Ey3ZCS-61" value="city" style="ellipse;whiteSpace=wrap;html=1;align=center;" vertex="1" parent="1">
          <mxGeometry x="1141" y="160" width="100" height="40" as="geometry" />
        </mxCell>
        <mxCell id="1ZrglhPDPXJqf7Ey3ZCS-62" value="department_name" style="ellipse;whiteSpace=wrap;html=1;align=center;" vertex="1" parent="1">
          <mxGeometry x="1050" y="120" width="100" height="40" as="geometry" />
        </mxCell>
        <mxCell id="1ZrglhPDPXJqf7Ey3ZCS-63" value="department_id" style="ellipse;whiteSpace=wrap;html=1;align=center;" vertex="1" parent="1">
          <mxGeometry x="950" y="150" width="100" height="40" as="geometry" />
        </mxCell>
        <mxCell id="1ZrglhPDPXJqf7Ey3ZCS-64" value="building_no" style="ellipse;whiteSpace=wrap;html=1;align=center;dashed=1;" vertex="1" parent="1">
          <mxGeometry x="1140" y="300" width="100" height="40" as="geometry" />
        </mxCell>
        <mxCell id="1ZrglhPDPXJqf7Ey3ZCS-67" value="" style="endArrow=none;html=1;rounded=0;" edge="1" parent="1" source="1ZrglhPDPXJqf7Ey3ZCS-59" target="1ZrglhPDPXJqf7Ey3ZCS-63">
          <mxGeometry relative="1" as="geometry">
            <mxPoint x="1000" y="430" as="sourcePoint" />
            <mxPoint x="1160" y="430" as="targetPoint" />
          </mxGeometry>
        </mxCell>
        <mxCell id="1ZrglhPDPXJqf7Ey3ZCS-68" value="" style="endArrow=none;html=1;rounded=0;" edge="1" parent="1" source="1ZrglhPDPXJqf7Ey3ZCS-59" target="1ZrglhPDPXJqf7Ey3ZCS-64">
          <mxGeometry relative="1" as="geometry">
            <mxPoint x="1000" y="430" as="sourcePoint" />
            <mxPoint x="1160" y="430" as="targetPoint" />
          </mxGeometry>
        </mxCell>
        <mxCell id="1ZrglhPDPXJqf7Ey3ZCS-69" value="" style="endArrow=none;html=1;rounded=0;" edge="1" parent="1" source="1ZrglhPDPXJqf7Ey3ZCS-59" target="1ZrglhPDPXJqf7Ey3ZCS-60">
          <mxGeometry relative="1" as="geometry">
            <mxPoint x="1000" y="430" as="sourcePoint" />
            <mxPoint x="1160" y="430" as="targetPoint" />
          </mxGeometry>
        </mxCell>
        <mxCell id="1ZrglhPDPXJqf7Ey3ZCS-70" value="" style="endArrow=none;html=1;rounded=0;" edge="1" parent="1" source="1ZrglhPDPXJqf7Ey3ZCS-59" target="1ZrglhPDPXJqf7Ey3ZCS-61">
          <mxGeometry relative="1" as="geometry">
            <mxPoint x="1000" y="430" as="sourcePoint" />
            <mxPoint x="1160" y="430" as="targetPoint" />
          </mxGeometry>
        </mxCell>
        <mxCell id="1ZrglhPDPXJqf7Ey3ZCS-71" value="" style="endArrow=none;html=1;rounded=0;" edge="1" parent="1" source="1ZrglhPDPXJqf7Ey3ZCS-59" target="1ZrglhPDPXJqf7Ey3ZCS-62">
          <mxGeometry relative="1" as="geometry">
            <mxPoint x="1000" y="430" as="sourcePoint" />
            <mxPoint x="1160" y="430" as="targetPoint" />
          </mxGeometry>
        </mxCell>
        <mxCell id="1ZrglhPDPXJqf7Ey3ZCS-72" value="places" style="shape=rhombus;perimeter=rhombusPerimeter;whiteSpace=wrap;html=1;align=center;strokeColor=#3399FF;" vertex="1" parent="1">
          <mxGeometry x="670" y="410" width="120" height="60" as="geometry" />
        </mxCell>
        <mxCell id="1ZrglhPDPXJqf7Ey3ZCS-73" value="orders" style="whiteSpace=wrap;html=1;align=center;strokeColor=#FF0000;" vertex="1" parent="1">
          <mxGeometry x="827" y="640" width="100" height="40" as="geometry" />
        </mxCell>
        <mxCell id="1ZrglhPDPXJqf7Ey3ZCS-74" value="sells" style="shape=rhombus;perimeter=rhombusPerimeter;whiteSpace=wrap;html=1;align=center;strokeColor=#3399FF;" vertex="1" parent="1">
          <mxGeometry x="620" y="750" width="120" height="60" as="geometry" />
        </mxCell>
        <mxCell id="1ZrglhPDPXJqf7Ey3ZCS-75" value="buys" style="shape=rhombus;perimeter=rhombusPerimeter;whiteSpace=wrap;html=1;align=center;strokeColor=#3399FF;" vertex="1" parent="1">
          <mxGeometry x="1011" y="750" width="120" height="60" as="geometry" />
        </mxCell>
        <mxCell id="1ZrglhPDPXJqf7Ey3ZCS-76" value="product" style="whiteSpace=wrap;html=1;align=center;strokeColor=#FF0000;" vertex="1" parent="1">
          <mxGeometry x="460" y="880" width="100" height="40" as="geometry" />
        </mxCell>
        <mxCell id="1ZrglhPDPXJqf7Ey3ZCS-77" value="customer" style="whiteSpace=wrap;html=1;align=center;strokeColor=#FF0000;" vertex="1" parent="1">
          <mxGeometry x="1191" y="880" width="100" height="40" as="geometry" />
        </mxCell>
        <mxCell id="1ZrglhPDPXJqf7Ey3ZCS-86" value="" style="edgeStyle=entityRelationEdgeStyle;fontSize=12;html=1;endArrow=ERzeroToMany;endFill=1;rounded=0;exitX=1;exitY=0.5;exitDx=0;exitDy=0;strokeColor=#3399FF;" edge="1" parent="1" source="1ZrglhPDPXJqf7Ey3ZCS-74" target="1ZrglhPDPXJqf7Ey3ZCS-73">
          <mxGeometry width="100" height="100" relative="1" as="geometry">
            <mxPoint x="820" y="740" as="sourcePoint" />
            <mxPoint x="860" y="850" as="targetPoint" />
          </mxGeometry>
        </mxCell>
        <mxCell id="1ZrglhPDPXJqf7Ey3ZCS-87" value="" style="edgeStyle=entityRelationEdgeStyle;fontSize=12;html=1;endArrow=ERoneToMany;rounded=0;entryX=1;entryY=0.5;entryDx=0;entryDy=0;strokeColor=#3399FF;" edge="1" parent="1" source="1ZrglhPDPXJqf7Ey3ZCS-75" target="1ZrglhPDPXJqf7Ey3ZCS-73">
          <mxGeometry width="100" height="100" relative="1" as="geometry">
            <mxPoint x="820" y="740" as="sourcePoint" />
            <mxPoint x="920" y="640" as="targetPoint" />
          </mxGeometry>
        </mxCell>
        <mxCell id="1ZrglhPDPXJqf7Ey3ZCS-89" value="" style="edgeStyle=entityRelationEdgeStyle;fontSize=12;html=1;endArrow=ERmandOne;rounded=0;strokeColor=#3399FF;" edge="1" parent="1" source="1ZrglhPDPXJqf7Ey3ZCS-74" target="1ZrglhPDPXJqf7Ey3ZCS-76">
          <mxGeometry width="100" height="100" relative="1" as="geometry">
            <mxPoint x="680" y="830" as="sourcePoint" />
            <mxPoint x="570" y="970" as="targetPoint" />
          </mxGeometry>
        </mxCell>
        <mxCell id="1ZrglhPDPXJqf7Ey3ZCS-90" value="" style="edgeStyle=entityRelationEdgeStyle;fontSize=12;html=1;endArrow=ERmandOne;rounded=0;strokeColor=#3399FF;" edge="1" parent="1" source="1ZrglhPDPXJqf7Ey3ZCS-75" target="1ZrglhPDPXJqf7Ey3ZCS-77">
          <mxGeometry width="100" height="100" relative="1" as="geometry">
            <mxPoint x="600" y="820" as="sourcePoint" />
            <mxPoint x="700" y="720" as="targetPoint" />
          </mxGeometry>
        </mxCell>
        <mxCell id="1ZrglhPDPXJqf7Ey3ZCS-92" value="amount" style="ellipse;whiteSpace=wrap;html=1;align=center;" vertex="1" parent="1">
          <mxGeometry x="1110" y="600" width="100" height="40" as="geometry" />
        </mxCell>
        <mxCell id="1ZrglhPDPXJqf7Ey3ZCS-93" value="transaction_moment" style="ellipse;whiteSpace=wrap;html=1;align=center;" vertex="1" parent="1">
          <mxGeometry x="1131" y="540" width="120" height="45" as="geometry" />
        </mxCell>
        <mxCell id="1ZrglhPDPXJqf7Ey3ZCS-94" value="transaction_type" style="ellipse;whiteSpace=wrap;html=1;align=center;" vertex="1" parent="1">
          <mxGeometry x="1150" y="490" width="100" height="40" as="geometry" />
        </mxCell>
        <mxCell id="1ZrglhPDPXJqf7Ey3ZCS-95" value="customer_id" style="ellipse;whiteSpace=wrap;html=1;align=center;" vertex="1" parent="1">
          <mxGeometry x="1120" y="440" width="100" height="40" as="geometry" />
        </mxCell>
        <mxCell id="1ZrglhPDPXJqf7Ey3ZCS-96" value="product_id" style="ellipse;whiteSpace=wrap;html=1;align=center;" vertex="1" parent="1">
          <mxGeometry x="1060" y="400" width="100" height="40" as="geometry" />
        </mxCell>
        <mxCell id="1ZrglhPDPXJqf7Ey3ZCS-97" value="employee_id" style="ellipse;whiteSpace=wrap;html=1;align=center;" vertex="1" parent="1">
          <mxGeometry x="980" y="370" width="100" height="40" as="geometry" />
        </mxCell>
        <mxCell id="1ZrglhPDPXJqf7Ey3ZCS-98" value="orders_id" style="ellipse;whiteSpace=wrap;html=1;align=center;" vertex="1" parent="1">
          <mxGeometry x="900" y="400" width="100" height="40" as="geometry" />
        </mxCell>
        <mxCell id="1ZrglhPDPXJqf7Ey3ZCS-105" value="" style="endArrow=none;html=1;rounded=0;" edge="1" parent="1" source="1ZrglhPDPXJqf7Ey3ZCS-73" target="1ZrglhPDPXJqf7Ey3ZCS-92">
          <mxGeometry relative="1" as="geometry">
            <mxPoint x="1020" y="810" as="sourcePoint" />
            <mxPoint x="1180" y="810" as="targetPoint" />
          </mxGeometry>
        </mxCell>
        <mxCell id="1ZrglhPDPXJqf7Ey3ZCS-106" value="" style="endArrow=none;html=1;rounded=0;" edge="1" parent="1" source="1ZrglhPDPXJqf7Ey3ZCS-73" target="1ZrglhPDPXJqf7Ey3ZCS-93">
          <mxGeometry relative="1" as="geometry">
            <mxPoint x="1090" y="783.67" as="sourcePoint" />
            <mxPoint x="1250" y="783.67" as="targetPoint" />
          </mxGeometry>
        </mxCell>
        <mxCell id="1ZrglhPDPXJqf7Ey3ZCS-107" value="" style="endArrow=none;html=1;rounded=0;" edge="1" parent="1" source="1ZrglhPDPXJqf7Ey3ZCS-73" target="1ZrglhPDPXJqf7Ey3ZCS-94">
          <mxGeometry relative="1" as="geometry">
            <mxPoint x="1090" y="780" as="sourcePoint" />
            <mxPoint x="1250" y="780" as="targetPoint" />
          </mxGeometry>
        </mxCell>
        <mxCell id="1ZrglhPDPXJqf7Ey3ZCS-108" value="" style="endArrow=none;html=1;rounded=0;" edge="1" parent="1" source="1ZrglhPDPXJqf7Ey3ZCS-73" target="1ZrglhPDPXJqf7Ey3ZCS-95">
          <mxGeometry relative="1" as="geometry">
            <mxPoint x="1100" y="780" as="sourcePoint" />
            <mxPoint x="1260" y="780" as="targetPoint" />
          </mxGeometry>
        </mxCell>
        <mxCell id="1ZrglhPDPXJqf7Ey3ZCS-109" value="" style="endArrow=none;html=1;rounded=0;" edge="1" parent="1" source="1ZrglhPDPXJqf7Ey3ZCS-73" target="1ZrglhPDPXJqf7Ey3ZCS-96">
          <mxGeometry relative="1" as="geometry">
            <mxPoint x="1100" y="780" as="sourcePoint" />
            <mxPoint x="1260" y="780" as="targetPoint" />
          </mxGeometry>
        </mxCell>
        <mxCell id="1ZrglhPDPXJqf7Ey3ZCS-110" value="" style="endArrow=none;html=1;rounded=0;" edge="1" parent="1" source="1ZrglhPDPXJqf7Ey3ZCS-73" target="1ZrglhPDPXJqf7Ey3ZCS-97">
          <mxGeometry relative="1" as="geometry">
            <mxPoint x="1100" y="780" as="sourcePoint" />
            <mxPoint x="1260" y="780" as="targetPoint" />
          </mxGeometry>
        </mxCell>
        <mxCell id="1ZrglhPDPXJqf7Ey3ZCS-111" value="" style="endArrow=none;html=1;rounded=0;" edge="1" parent="1" source="1ZrglhPDPXJqf7Ey3ZCS-98" target="1ZrglhPDPXJqf7Ey3ZCS-73">
          <mxGeometry relative="1" as="geometry">
            <mxPoint x="1100" y="780" as="sourcePoint" />
            <mxPoint x="1260" y="780" as="targetPoint" />
          </mxGeometry>
        </mxCell>
        <mxCell id="1ZrglhPDPXJqf7Ey3ZCS-113" value="email" style="ellipse;whiteSpace=wrap;html=1;align=center;" vertex="1" parent="1">
          <mxGeometry x="1350" y="1010" width="100" height="40" as="geometry" />
        </mxCell>
        <mxCell id="1ZrglhPDPXJqf7Ey3ZCS-114" value="phone_number" style="ellipse;whiteSpace=wrap;html=1;align=center;" vertex="1" parent="1">
          <mxGeometry x="1450" y="980" width="100" height="40" as="geometry" />
        </mxCell>
        <mxCell id="1ZrglhPDPXJqf7Ey3ZCS-115" value="birth_date" style="ellipse;whiteSpace=wrap;html=1;align=center;" vertex="1" parent="1">
          <mxGeometry x="1510" y="930" width="100" height="40" as="geometry" />
        </mxCell>
        <mxCell id="1ZrglhPDPXJqf7Ey3ZCS-116" value="gender" style="ellipse;whiteSpace=wrap;html=1;align=center;" vertex="1" parent="1">
          <mxGeometry x="1520" y="880" width="100" height="40" as="geometry" />
        </mxCell>
        <mxCell id="1ZrglhPDPXJqf7Ey3ZCS-117" value="last_name" style="ellipse;whiteSpace=wrap;html=1;align=center;" vertex="1" parent="1">
          <mxGeometry x="1480" y="830" width="100" height="40" as="geometry" />
        </mxCell>
        <mxCell id="1ZrglhPDPXJqf7Ey3ZCS-118" value="first_name" style="ellipse;whiteSpace=wrap;html=1;align=center;" vertex="1" parent="1">
          <mxGeometry x="1400" y="790" width="100" height="40" as="geometry" />
        </mxCell>
        <mxCell id="1ZrglhPDPXJqf7Ey3ZCS-119" value="customer_id" style="ellipse;whiteSpace=wrap;html=1;align=center;" vertex="1" parent="1">
          <mxGeometry x="1300" y="770" width="100" height="40" as="geometry" />
        </mxCell>
        <mxCell id="1ZrglhPDPXJqf7Ey3ZCS-120" value="discount" style="ellipse;whiteSpace=wrap;html=1;align=center;dashed=1;" vertex="1" parent="1">
          <mxGeometry x="1241" y="1030" width="100" height="40" as="geometry" />
        </mxCell>
        <mxCell id="1ZrglhPDPXJqf7Ey3ZCS-123" value="" style="endArrow=none;html=1;rounded=0;" edge="1" parent="1" source="1ZrglhPDPXJqf7Ey3ZCS-77" target="1ZrglhPDPXJqf7Ey3ZCS-120">
          <mxGeometry relative="1" as="geometry">
            <mxPoint x="1350" y="1220" as="sourcePoint" />
            <mxPoint x="1510" y="1220" as="targetPoint" />
          </mxGeometry>
        </mxCell>
        <mxCell id="1ZrglhPDPXJqf7Ey3ZCS-124" value="" style="endArrow=none;html=1;rounded=0;" edge="1" parent="1" source="1ZrglhPDPXJqf7Ey3ZCS-77" target="1ZrglhPDPXJqf7Ey3ZCS-113">
          <mxGeometry relative="1" as="geometry">
            <mxPoint x="1440" y="1220" as="sourcePoint" />
            <mxPoint x="1600" y="1220" as="targetPoint" />
          </mxGeometry>
        </mxCell>
        <mxCell id="1ZrglhPDPXJqf7Ey3ZCS-125" value="" style="endArrow=none;html=1;rounded=0;" edge="1" parent="1" source="1ZrglhPDPXJqf7Ey3ZCS-77" target="1ZrglhPDPXJqf7Ey3ZCS-114">
          <mxGeometry relative="1" as="geometry">
            <mxPoint x="1450" y="1190" as="sourcePoint" />
            <mxPoint x="1610" y="1190" as="targetPoint" />
          </mxGeometry>
        </mxCell>
        <mxCell id="1ZrglhPDPXJqf7Ey3ZCS-126" value="" style="endArrow=none;html=1;rounded=0;" edge="1" parent="1" source="1ZrglhPDPXJqf7Ey3ZCS-115" target="1ZrglhPDPXJqf7Ey3ZCS-77">
          <mxGeometry relative="1" as="geometry">
            <mxPoint x="1590" y="1250" as="sourcePoint" />
            <mxPoint x="1750" y="1250" as="targetPoint" />
          </mxGeometry>
        </mxCell>
        <mxCell id="1ZrglhPDPXJqf7Ey3ZCS-127" value="" style="endArrow=none;html=1;rounded=0;" edge="1" parent="1" source="1ZrglhPDPXJqf7Ey3ZCS-116" target="1ZrglhPDPXJqf7Ey3ZCS-77">
          <mxGeometry relative="1" as="geometry">
            <mxPoint x="1590" y="1250" as="sourcePoint" />
            <mxPoint x="1750" y="1250" as="targetPoint" />
          </mxGeometry>
        </mxCell>
        <mxCell id="1ZrglhPDPXJqf7Ey3ZCS-128" value="" style="endArrow=none;html=1;rounded=0;" edge="1" parent="1" source="1ZrglhPDPXJqf7Ey3ZCS-117" target="1ZrglhPDPXJqf7Ey3ZCS-77">
          <mxGeometry relative="1" as="geometry">
            <mxPoint x="1590" y="1250" as="sourcePoint" />
            <mxPoint x="1750" y="1250" as="targetPoint" />
          </mxGeometry>
        </mxCell>
        <mxCell id="1ZrglhPDPXJqf7Ey3ZCS-129" value="" style="endArrow=none;html=1;rounded=0;" edge="1" parent="1" source="1ZrglhPDPXJqf7Ey3ZCS-118" target="1ZrglhPDPXJqf7Ey3ZCS-77">
          <mxGeometry relative="1" as="geometry">
            <mxPoint x="1590" y="1250" as="sourcePoint" />
            <mxPoint x="1750" y="1250" as="targetPoint" />
          </mxGeometry>
        </mxCell>
        <mxCell id="1ZrglhPDPXJqf7Ey3ZCS-130" value="" style="endArrow=none;html=1;rounded=0;" edge="1" parent="1" source="1ZrglhPDPXJqf7Ey3ZCS-119" target="1ZrglhPDPXJqf7Ey3ZCS-77">
          <mxGeometry relative="1" as="geometry">
            <mxPoint x="1590" y="1250" as="sourcePoint" />
            <mxPoint x="1750" y="1250" as="targetPoint" />
          </mxGeometry>
        </mxCell>
        <mxCell id="1ZrglhPDPXJqf7Ey3ZCS-135" value="amount" style="ellipse;whiteSpace=wrap;html=1;align=center;" vertex="1" parent="1">
          <mxGeometry x="320" y="1010" width="100" height="40" as="geometry" />
        </mxCell>
        <mxCell id="1ZrglhPDPXJqf7Ey3ZCS-136" value="product_type" style="ellipse;whiteSpace=wrap;html=1;align=center;" vertex="1" parent="1">
          <mxGeometry x="230" y="980" width="100" height="40" as="geometry" />
        </mxCell>
        <mxCell id="1ZrglhPDPXJqf7Ey3ZCS-137" value="manufacture" style="ellipse;whiteSpace=wrap;html=1;align=center;" vertex="1" parent="1">
          <mxGeometry x="170" y="930" width="100" height="40" as="geometry" />
        </mxCell>
        <mxCell id="1ZrglhPDPXJqf7Ey3ZCS-138" value="category" style="ellipse;whiteSpace=wrap;html=1;align=center;" vertex="1" parent="1">
          <mxGeometry x="160" y="870" width="100" height="40" as="geometry" />
        </mxCell>
        <mxCell id="1ZrglhPDPXJqf7Ey3ZCS-139" value="product_description" style="ellipse;whiteSpace=wrap;html=1;align=center;" vertex="1" parent="1">
          <mxGeometry x="170" y="820" width="120" height="40" as="geometry" />
        </mxCell>
        <mxCell id="1ZrglhPDPXJqf7Ey3ZCS-140" value="product_name" style="ellipse;whiteSpace=wrap;html=1;align=center;" vertex="1" parent="1">
          <mxGeometry x="250" y="780" width="100" height="40" as="geometry" />
        </mxCell>
        <mxCell id="1ZrglhPDPXJqf7Ey3ZCS-141" value="product_id" style="ellipse;whiteSpace=wrap;html=1;align=center;" vertex="1" parent="1">
          <mxGeometry x="340" y="750" width="100" height="40" as="geometry" />
        </mxCell>
        <mxCell id="1ZrglhPDPXJqf7Ey3ZCS-142" value="price" style="ellipse;whiteSpace=wrap;html=1;align=center;" vertex="1" parent="1">
          <mxGeometry x="420" y="1030" width="100" height="40" as="geometry" />
        </mxCell>
        <mxCell id="1ZrglhPDPXJqf7Ey3ZCS-145" value="" style="endArrow=none;html=1;rounded=0;" edge="1" parent="1" source="1ZrglhPDPXJqf7Ey3ZCS-76" target="1ZrglhPDPXJqf7Ey3ZCS-142">
          <mxGeometry relative="1" as="geometry">
            <mxPoint x="370" y="1140" as="sourcePoint" />
            <mxPoint x="530" y="1140" as="targetPoint" />
          </mxGeometry>
        </mxCell>
        <mxCell id="1ZrglhPDPXJqf7Ey3ZCS-146" value="" style="endArrow=none;html=1;rounded=0;" edge="1" parent="1" source="1ZrglhPDPXJqf7Ey3ZCS-76" target="1ZrglhPDPXJqf7Ey3ZCS-135">
          <mxGeometry relative="1" as="geometry">
            <mxPoint x="370" y="1140" as="sourcePoint" />
            <mxPoint x="530" y="1140" as="targetPoint" />
          </mxGeometry>
        </mxCell>
        <mxCell id="1ZrglhPDPXJqf7Ey3ZCS-147" value="" style="endArrow=none;html=1;rounded=0;" edge="1" parent="1" source="1ZrglhPDPXJqf7Ey3ZCS-76" target="1ZrglhPDPXJqf7Ey3ZCS-136">
          <mxGeometry relative="1" as="geometry">
            <mxPoint x="370" y="1140" as="sourcePoint" />
            <mxPoint x="530" y="1140" as="targetPoint" />
          </mxGeometry>
        </mxCell>
        <mxCell id="1ZrglhPDPXJqf7Ey3ZCS-148" value="" style="endArrow=none;html=1;rounded=0;" edge="1" parent="1" source="1ZrglhPDPXJqf7Ey3ZCS-138" target="1ZrglhPDPXJqf7Ey3ZCS-76">
          <mxGeometry relative="1" as="geometry">
            <mxPoint x="370" y="1140" as="sourcePoint" />
            <mxPoint x="530" y="1140" as="targetPoint" />
          </mxGeometry>
        </mxCell>
        <mxCell id="1ZrglhPDPXJqf7Ey3ZCS-149" value="" style="endArrow=none;html=1;rounded=0;" edge="1" parent="1" source="1ZrglhPDPXJqf7Ey3ZCS-139" target="1ZrglhPDPXJqf7Ey3ZCS-76">
          <mxGeometry relative="1" as="geometry">
            <mxPoint x="370" y="1140" as="sourcePoint" />
            <mxPoint x="530" y="1140" as="targetPoint" />
          </mxGeometry>
        </mxCell>
        <mxCell id="1ZrglhPDPXJqf7Ey3ZCS-150" value="" style="endArrow=none;html=1;rounded=0;" edge="1" parent="1" source="1ZrglhPDPXJqf7Ey3ZCS-140" target="1ZrglhPDPXJqf7Ey3ZCS-76">
          <mxGeometry relative="1" as="geometry">
            <mxPoint x="370" y="1140" as="sourcePoint" />
            <mxPoint x="530" y="1140" as="targetPoint" />
          </mxGeometry>
        </mxCell>
        <mxCell id="1ZrglhPDPXJqf7Ey3ZCS-151" value="" style="endArrow=none;html=1;rounded=0;" edge="1" parent="1" source="1ZrglhPDPXJqf7Ey3ZCS-141" target="1ZrglhPDPXJqf7Ey3ZCS-76">
          <mxGeometry relative="1" as="geometry">
            <mxPoint x="370" y="1140" as="sourcePoint" />
            <mxPoint x="530" y="1140" as="targetPoint" />
          </mxGeometry>
        </mxCell>
        <mxCell id="1ZrglhPDPXJqf7Ey3ZCS-153" value="" style="edgeStyle=elbowEdgeStyle;fontSize=12;html=1;endArrow=ERzeroToMany;endFill=1;rounded=0;elbow=vertical;strokeColor=#3399FF;" edge="1" parent="1" target="1ZrglhPDPXJqf7Ey3ZCS-73">
          <mxGeometry width="100" height="100" relative="1" as="geometry">
            <mxPoint x="790" y="441" as="sourcePoint" />
            <mxPoint x="880" y="731" as="targetPoint" />
            <Array as="points">
              <mxPoint x="820" y="441" />
            </Array>
          </mxGeometry>
        </mxCell>
        <mxCell id="1ZrglhPDPXJqf7Ey3ZCS-154" value="" style="edgeStyle=entityRelationEdgeStyle;fontSize=12;html=1;endArrow=ERzeroToMany;endFill=1;rounded=0;exitX=0;exitY=0.5;exitDx=0;exitDy=0;strokeColor=#3399FF;" edge="1" parent="1" source="1ZrglhPDPXJqf7Ey3ZCS-58" target="1ZrglhPDPXJqf7Ey3ZCS-38">
          <mxGeometry width="100" height="100" relative="1" as="geometry">
            <mxPoint x="880" y="540" as="sourcePoint" />
            <mxPoint x="980" y="440" as="targetPoint" />
          </mxGeometry>
        </mxCell>
        <mxCell id="1ZrglhPDPXJqf7Ey3ZCS-155" value="" style="fontSize=12;html=1;endArrow=ERmandOne;rounded=0;entryX=0.5;entryY=1;entryDx=0;entryDy=0;edgeStyle=orthogonalEdgeStyle;strokeColor=#3399FF;" edge="1" parent="1" source="1ZrglhPDPXJqf7Ey3ZCS-72" target="1ZrglhPDPXJqf7Ey3ZCS-38">
          <mxGeometry width="100" height="100" relative="1" as="geometry">
            <mxPoint x="740" y="540" as="sourcePoint" />
            <mxPoint x="840" y="440" as="targetPoint" />
          </mxGeometry>
        </mxCell>
        <mxCell id="1ZrglhPDPXJqf7Ey3ZCS-158" value="" style="edgeStyle=entityRelationEdgeStyle;fontSize=12;html=1;endArrow=ERzeroToOne;endFill=1;rounded=0;strokeColor=#3399FF;" edge="1" parent="1" source="1ZrglhPDPXJqf7Ey3ZCS-58" target="1ZrglhPDPXJqf7Ey3ZCS-59">
          <mxGeometry width="100" height="100" relative="1" as="geometry">
            <mxPoint x="880" y="540" as="sourcePoint" />
            <mxPoint x="980" y="440" as="targetPoint" />
          </mxGeometry>
        </mxCell>
        <mxCell id="1ZrglhPDPXJqf7Ey3ZCS-159" value="" style="edgeStyle=elbowEdgeStyle;fontSize=12;html=1;endArrow=ERzeroToMany;endFill=1;rounded=0;elbow=vertical;exitX=0;exitY=0.5;exitDx=0;exitDy=0;entryX=0.25;entryY=0;entryDx=0;entryDy=0;strokeColor=#3399FF;" edge="1" parent="1" source="1ZrglhPDPXJqf7Ey3ZCS-35" target="1ZrglhPDPXJqf7Ey3ZCS-38">
          <mxGeometry width="100" height="100" relative="1" as="geometry">
            <mxPoint x="340" y="90" as="sourcePoint" />
            <mxPoint x="370" y="150" as="targetPoint" />
          </mxGeometry>
        </mxCell>
        <mxCell id="1ZrglhPDPXJqf7Ey3ZCS-160" value="" style="edgeStyle=elbowEdgeStyle;fontSize=12;html=1;endArrow=ERzeroToOne;endFill=1;rounded=0;elbow=vertical;exitX=1;exitY=0.5;exitDx=0;exitDy=0;entryX=0.75;entryY=0;entryDx=0;entryDy=0;strokeColor=#3399FF;" edge="1" parent="1" source="1ZrglhPDPXJqf7Ey3ZCS-35" target="1ZrglhPDPXJqf7Ey3ZCS-38">
          <mxGeometry width="100" height="100" relative="1" as="geometry">
            <mxPoint x="500" y="410" as="sourcePoint" />
            <mxPoint x="540" y="230" as="targetPoint" />
          </mxGeometry>
        </mxCell>
        <mxCell id="1ZrglhPDPXJqf7Ey3ZCS-161" style="edgeStyle=elbowEdgeStyle;rounded=0;orthogonalLoop=1;jettySize=auto;html=1;exitX=0.5;exitY=1;exitDx=0;exitDy=0;" edge="1" parent="1" source="1ZrglhPDPXJqf7Ey3ZCS-27" target="1ZrglhPDPXJqf7Ey3ZCS-27">
          <mxGeometry relative="1" as="geometry" />
        </mxCell>
        <mxCell id="1ZrglhPDPXJqf7Ey3ZCS-162" style="edgeStyle=elbowEdgeStyle;rounded=0;orthogonalLoop=1;jettySize=auto;html=1;exitX=0.5;exitY=1;exitDx=0;exitDy=0;" edge="1" parent="1" source="1ZrglhPDPXJqf7Ey3ZCS-27" target="1ZrglhPDPXJqf7Ey3ZCS-27">
          <mxGeometry relative="1" as="geometry" />
        </mxCell>
        <mxCell id="1ZrglhPDPXJqf7Ey3ZCS-167" value="" style="endArrow=none;html=1;rounded=0;" edge="1" parent="1" source="1ZrglhPDPXJqf7Ey3ZCS-137" target="1ZrglhPDPXJqf7Ey3ZCS-76">
          <mxGeometry relative="1" as="geometry">
            <mxPoint x="440" y="1050" as="sourcePoint" />
            <mxPoint x="600" y="1050" as="targetPoint" />
          </mxGeometry>
        </mxCell>
        <mxCell id="1ZrglhPDPXJqf7Ey3ZCS-170" style="edgeStyle=elbowEdgeStyle;rounded=0;orthogonalLoop=1;jettySize=auto;html=1;exitX=0.5;exitY=1;exitDx=0;exitDy=0;" edge="1" parent="1" source="1ZrglhPDPXJqf7Ey3ZCS-113" target="1ZrglhPDPXJqf7Ey3ZCS-113">
          <mxGeometry relative="1" as="geometry" />
        </mxCell>
      </root>
    </mxGraphModel>
  </diagram>
</mxfile>
